<svg width="20" height="15" viewBox="0 0 20 15" fill="none" xmlns="http://www.w3.org/2000/svg">
<path fill-rule="evenodd" clip-rule="evenodd" d="M10.1905 14.4456L9.41654 12.94L9.41621 12.94L9.12719 12.3778L9.12752 12.3778L7.2712 8.76656L2.78512 8.76656L1.54611 8.76656C1.52048 8.76656 1.49492 8.76592 1.46944 8.76466C1.0873 8.74574 0.724676 8.58587 0.452846 8.31453C0.416603 8.27835 0.382345 8.24056 0.350141 8.20133C0.124719 7.9267 7.0293e-06 7.58138 6.99799e-06 7.22323C6.9622e-06 6.81384 0.16287 6.4212 0.452796 6.13164C0.742723 5.84208 1.13598 5.6793 1.54611 5.67908L2.78512 5.67908L7.2712 5.67908L9.12752 2.06788L9.12719 2.06788L9.41621 1.50562L9.41654 1.50562L10.1905 5.62595e-06L12.772 5.40026e-06L12.772 1.50562L12.772 2.06788L12.772 3.08747L13.5134 3.08747C13.5335 3.08747 13.5525 3.12432 13.5691 3.18911L13.7581 3.18911C13.7739 3.18911 13.7889 3.21624 13.8021 3.26451L13.846 3.26451L13.9281 3.26451C13.9421 3.26451 13.9554 3.28905 13.9673 3.33271L14.0159 3.31532L14.0166 3.31897L14.1531 3.27004C14.1512 3.26749 14.1492 3.2651 14.1473 3.26287L14.1588 3.26287L14.1622 3.26675L14.3575 3.19675L14.3542 3.1932L14.3665 3.19321L14.3805 3.18829L14.3807 3.18844L14.5546 3.12608L14.5546 3.126L14.5677 3.12108L14.5679 3.12131L14.612 3.1055C14.6167 3.10466 14.6214 3.10466 14.626 3.1055C14.6557 3.1055 14.6838 3.13623 14.7087 3.1909C16.0977 3.19911 17.2149 3.52372 17.2149 3.92183C17.2149 4.32 16.0941 4.64465 14.7079 4.65277C14.6832 4.70641 14.6554 4.73653 14.626 4.73653C14.6214 4.73737 14.6167 4.73737 14.612 4.73653L14.5679 4.72072L14.5677 4.72096L14.5546 4.71604L14.5546 4.71595L14.3807 4.6536L14.3805 4.65375L14.3665 4.64883L14.3655 4.64816L14.1731 4.57916L14.1613 4.57916L14.1641 4.57596L14.1589 4.5741L14.1588 4.57425L14.1585 4.57396L13.9678 4.50559C13.9558 4.55055 13.9423 4.57589 13.9281 4.57589L13.846 4.57589L13.8028 4.57589C13.7894 4.62569 13.7742 4.65375 13.7581 4.65375L13.5689 4.65375C13.5523 4.71803 13.5334 4.75456 13.5134 4.75456L12.772 4.75456L12.772 5.67908L13.1431 5.67908C13.1807 5.67908 13.216 5.74711 13.2468 5.86677L13.5996 5.86677C13.6293 5.86677 13.6574 5.91843 13.6822 6.0102L13.7557 6.0102L13.91 6.0102C13.9365 6.0102 13.9616 6.05687 13.9838 6.13973L15.0749 5.74884L15.0719 5.74546L15.0945 5.74181L15.1827 5.71023C15.1911 5.70695 15.2 5.70529 15.209 5.70531C15.2646 5.70531 15.3171 5.76361 15.3636 5.86712C17.9339 5.88351 20 6.48439 20 7.22158C20 7.95864 17.9347 8.55863 15.3651 8.57523C15.3182 8.68079 15.2652 8.74033 15.209 8.74033C15.2 8.74036 15.1911 8.73869 15.1827 8.73541L15.1113 8.70986L15.0973 8.70508L15.0973 8.70505L15.0975 8.70493L15.0975 8.70492L15.0973 8.70505L15.0973 8.70508L15.0719 8.69606L15.0721 8.69584L14.7493 8.58039L14.7492 8.5805L14.7237 8.57148L14.7239 8.5713L13.9838 8.30659C13.9616 8.38954 13.9365 8.43625 13.91 8.43625L13.7557 8.43625L13.6822 8.43625C13.6574 8.52802 13.6293 8.57968 13.5996 8.57968L13.2467 8.57968C13.2159 8.69885 13.1806 8.76656 13.1431 8.76656L12.772 8.76656L12.772 9.69189L13.5134 9.69189C13.5335 9.69189 13.5524 9.7284 13.569 9.7927L13.7581 9.7927C13.7741 9.7927 13.7893 9.82043 13.8026 9.86975L13.846 9.86975L13.9281 9.86975C13.9423 9.86975 13.9559 9.8952 13.9679 9.94037L14.0159 9.92302L14.016 9.9234L14.167 9.86911C14.1651 9.86671 14.1632 9.86447 14.1613 9.86238L14.1732 9.86686L14.5666 9.72544L14.5677 9.72468L14.568 9.72495L14.612 9.70911C14.6167 9.70826 14.6214 9.70826 14.626 9.70911C14.6554 9.70911 14.6832 9.73922 14.7079 9.79286C16.0941 9.80098 17.2149 10.1256 17.2149 10.5238C17.2149 10.9219 16.0979 11.2465 14.7091 11.2547C14.6841 11.3099 14.6559 11.341 14.626 11.341C14.6214 11.3418 14.6167 11.3418 14.612 11.341L14.5664 11.3246L14.5546 11.3246L14.5575 11.3213L14.3658 11.2524L14.3542 11.2524L14.3571 11.2493L14.1625 11.1794L14.1588 11.1836L14.1473 11.1836C14.1493 11.1813 14.1514 11.1787 14.1534 11.176L14.016 11.1267L14.0159 11.127L13.9681 11.1098C13.956 11.1554 13.9424 11.1811 13.9281 11.1811L13.846 11.1811L13.8024 11.1811C13.789 11.2299 13.774 11.2573 13.7581 11.2573L13.5689 11.2573C13.5524 11.3216 13.5335 11.3582 13.5134 11.3582L12.772 11.3582L12.772 12.3778L12.772 12.94L12.772 14.4456L10.1905 14.4456ZM15.0086 7.22487L15.0094 7.22487L15.0094 7.22159L15.0086 7.22159L15.0086 7.22322L15.0086 7.22487ZM14.9421 7.22322L14.9421 7.22487L14.5891 7.22487L14.5891 7.22322L14.5891 7.22159L14.9421 7.22159L14.9421 7.22322ZM14.5562 7.22159L14.5554 7.22159L14.5554 7.22323L14.5554 7.22487L14.5562 7.22487L14.5562 7.22322L14.5562 7.22159ZM14.1744 7.22159L14.5275 7.22159L14.5275 7.22323L14.5275 7.22487L14.1744 7.22487L14.1744 7.22322L14.1744 7.22159Z" fill="#1D1D1D"/>
</svg>
