<svg id="Layer_1" data-name="Layer 1" xmlns="http://www.w3.org/2000/svg" xmlns:xlink="http://www.w3.org/1999/xlink" viewBox="0 0 243.6 176.25"><defs><style>.cls-1{fill:url(#radial-gradient);}.cls-2{fill:url(#linear-gradient);}.cls-3{fill:url(#linear-gradient-2);}.cls-4{opacity:0.21;}.cls-5{fill:url(#linear-gradient-3);}.cls-6{fill:url(#linear-gradient-4);}.cls-11,.cls-7{fill:#fff;}.cls-7{opacity:0.64;}.cls-8{opacity:0.4;}.cls-9{fill:url(#linear-gradient-5);}.cls-10{fill:url(#radial-gradient-2);}.cls-11{opacity:0.17;}.cls-12{fill:url(#linear-gradient-6);}.cls-13{fill:url(#radial-gradient-3);}.cls-14{fill:url(#linear-gradient-7);}.cls-15{fill:url(#radial-gradient-4);}.cls-16{fill:url(#linear-gradient-8);}.cls-17{fill:url(#radial-gradient-5);}.cls-18{fill:url(#linear-gradient-9);}.cls-19{fill:url(#radial-gradient-6);}.cls-20{fill:url(#linear-gradient-10);}.cls-21{fill:url(#linear-gradient-11);}.cls-22{fill:url(#linear-gradient-12);}.cls-23{fill:url(#radial-gradient-7);}.cls-24{fill:url(#linear-gradient-13);}.cls-25{fill:url(#linear-gradient-14);}.cls-26{fill:url(#linear-gradient-15);}.cls-27{fill:url(#linear-gradient-16);}.cls-28{fill:url(#linear-gradient-17);}.cls-29{fill:url(#radial-gradient-8);}.cls-30{fill:url(#linear-gradient-18);}.cls-31{fill:url(#radial-gradient-9);}.cls-32{fill:url(#linear-gradient-19);}.cls-33{fill:url(#radial-gradient-10);}.cls-34{fill:url(#linear-gradient-20);}.cls-35{fill:url(#radial-gradient-11);}.cls-36{fill:url(#linear-gradient-21);}.cls-37{fill:url(#radial-gradient-12);}.cls-38{fill:url(#linear-gradient-22);}.cls-39{fill:url(#linear-gradient-23);}.cls-40{fill:url(#linear-gradient-24);}.cls-41{fill:url(#radial-gradient-13);}.cls-42{fill:url(#linear-gradient-25);}.cls-43{fill:url(#linear-gradient-26);}.cls-44{fill:url(#linear-gradient-27);}.cls-45{fill:url(#linear-gradient-28);}.cls-46{fill:url(#linear-gradient-29);}.cls-47{fill:url(#radial-gradient-14);}.cls-48{fill:url(#linear-gradient-30);}.cls-49{fill:url(#radial-gradient-15);}.cls-50{fill:url(#linear-gradient-31);}.cls-51{fill:url(#radial-gradient-16);}.cls-52{fill:url(#linear-gradient-32);}.cls-53{fill:url(#radial-gradient-17);}.cls-54{fill:url(#linear-gradient-33);}.cls-55{fill:url(#radial-gradient-18);}.cls-56{fill:url(#linear-gradient-34);}.cls-57{fill:url(#linear-gradient-35);}.cls-58{fill:url(#linear-gradient-36);}.cls-59{fill:url(#linear-gradient-37);}.cls-60{fill:url(#linear-gradient-38);}.cls-61{fill:url(#radial-gradient-19);}.cls-62{fill:url(#linear-gradient-39);}.cls-63{fill:url(#radial-gradient-20);}.cls-64{fill:url(#linear-gradient-40);}.cls-65{fill:url(#radial-gradient-21);}.cls-66{fill:url(#linear-gradient-41);}.cls-67{fill:url(#radial-gradient-22);}.cls-68{fill:url(#linear-gradient-42);}.cls-69{fill:url(#radial-gradient-23);}.cls-70{fill:url(#linear-gradient-43);}.cls-71{fill:url(#radial-gradient-24);}.cls-72{fill:url(#linear-gradient-44);}.cls-73{fill:url(#radial-gradient-25);}.cls-74{fill:url(#linear-gradient-45);}.cls-75{fill:url(#radial-gradient-26);}.cls-76{fill:url(#linear-gradient-46);}.cls-77{fill:url(#radial-gradient-27);}.cls-78{fill:url(#linear-gradient-47);}.cls-79{fill:url(#linear-gradient-48);}.cls-80{fill:url(#linear-gradient-49);}.cls-81{fill:url(#radial-gradient-28);}.cls-82{fill:url(#linear-gradient-50);}.cls-83{fill:url(#radial-gradient-29);}.cls-84{fill:url(#linear-gradient-51);}.cls-85{fill:url(#radial-gradient-30);}.cls-86{fill:url(#linear-gradient-52);}.cls-87{fill:url(#radial-gradient-31);}.cls-88{fill:url(#linear-gradient-53);}.cls-89{fill:url(#radial-gradient-32);}.cls-90{fill:url(#linear-gradient-54);}.cls-91{fill:url(#radial-gradient-33);}.cls-92{fill:url(#linear-gradient-55);}.cls-93{fill:url(#radial-gradient-34);}.cls-94{fill:url(#linear-gradient-56);}.cls-95{fill:url(#radial-gradient-35);}.cls-96{fill:url(#linear-gradient-57);}.cls-97{fill:url(#radial-gradient-36);}</style><radialGradient id="radial-gradient" cx="1101.14" cy="-4323.68" r="8.89" gradientTransform="translate(-14323.03 -557.42) rotate(90) scale(1 3.67)" gradientUnits="userSpaceOnUse"><stop offset="0" stop-color="#f3ffe6"/><stop offset="0.21" stop-color="#ffc742"/><stop offset="0.22" stop-color="#ffc242"/><stop offset="0.28" stop-color="#ff993d"/><stop offset="0.35" stop-color="#ff793a"/><stop offset="0.4" stop-color="#ff6238"/><stop offset="0.46" stop-color="#ff5436"/><stop offset="0.51" stop-color="#ff4f36"/><stop offset="0.54" stop-color="#ff634d"/><stop offset="0.63" stop-color="#ff9282"/><stop offset="0.71" stop-color="#ffb9af"/><stop offset="0.79" stop-color="#ffd7d2"/><stop offset="0.86" stop-color="#ffedeb"/><stop offset="0.93" stop-color="snow"/><stop offset="0.99" stop-color="#fff"/></radialGradient><linearGradient id="linear-gradient" x1="1092.26" y1="659.92" x2="1102.28" y2="662.05" gradientTransform="translate(2213.68 -557.42) rotate(90)" gradientUnits="userSpaceOnUse"><stop offset="0" stop-color="#666"/><stop offset="0.06" stop-color="#737373"/><stop offset="0.17" stop-color="#979797"/><stop offset="0.31" stop-color="#d0d0d0"/><stop offset="0.39" stop-color="#f2f2f2"/><stop offset="0.47" stop-color="#d4d4d4"/><stop offset="0.6" stop-color="#afafaf"/><stop offset="0.71" stop-color="#959595"/><stop offset="0.81" stop-color="#858585"/><stop offset="0.89" stop-color="#7f7f7f"/></linearGradient><linearGradient id="linear-gradient-2" x1="6345.16" y1="659.92" x2="6355.18" y2="662.05" gradientTransform="matrix(0, -1, -1, 0, 2213.68, 6897.75)" xlink:href="#linear-gradient"/><linearGradient id="linear-gradient-3" x1="1093.15" y1="656.04" x2="1109.13" y2="656.04" gradientTransform="translate(2213.68 -557.42) rotate(90)" gradientUnits="userSpaceOnUse"><stop offset="0" stop-color="#999"/><stop offset="0.09" stop-color="#ccc"/><stop offset="0.12" stop-color="#a8a8a8"/><stop offset="0.15" stop-color="#8b8b8b"/><stop offset="0.18" stop-color="#777"/><stop offset="0.21" stop-color="#6a6a6a"/><stop offset="0.24" stop-color="#666"/><stop offset="0.28" stop-color="#737373"/><stop offset="0.35" stop-color="#979797"/><stop offset="0.44" stop-color="#d0d0d0"/><stop offset="0.49" stop-color="#f2f2f2"/><stop offset="0.5" stop-color="#ececec"/><stop offset="0.6" stop-color="#b2b2b2"/><stop offset="0.67" stop-color="#8e8e8e"/><stop offset="0.71" stop-color="gray"/><stop offset="0.74" stop-color="#848484"/><stop offset="0.78" stop-color="#929292"/><stop offset="0.82" stop-color="#a7a7a7"/><stop offset="0.86" stop-color="#c6c6c6"/><stop offset="0.86" stop-color="#ccc"/><stop offset="0.89" stop-color="#c6c6c6"/><stop offset="0.92" stop-color="#b5b5b5"/><stop offset="0.95" stop-color="#999"/><stop offset="0.99" stop-color="#737373"/><stop offset="1" stop-color="#666"/></linearGradient><linearGradient id="linear-gradient-4" x1="1092.2" y1="653.9" x2="1110.07" y2="653.9" xlink:href="#linear-gradient-3"/><linearGradient id="linear-gradient-5" x1="1101.14" y1="653.99" x2="1101.14" y2="655.05" gradientTransform="translate(730.65 -1053.3) rotate(90)" gradientUnits="userSpaceOnUse"><stop offset="0" stop-color="#333"/><stop offset="0.16" stop-color="#4f4f4f"/><stop offset="0.52" stop-color="#969696"/><stop offset="1" stop-color="#fff"/></linearGradient><radialGradient id="radial-gradient-2" cx="1101.14" cy="654.52" r="0.44" gradientTransform="translate(730.65 -1053.3) rotate(90)" gradientUnits="userSpaceOnUse"><stop offset="0" stop-color="#f1f1f1"/><stop offset="0.13" stop-color="#ececec"/><stop offset="0.29" stop-color="#dedede"/><stop offset="0.47" stop-color="#c6c6c6"/><stop offset="0.64" stop-color="#a5a5a5"/><stop offset="0.83" stop-color="#7b7b7b"/><stop offset="1" stop-color="#4d4d4d"/></radialGradient><linearGradient id="linear-gradient-6" x1="1105.02" y1="653.87" x2="1105.02" y2="654.94" gradientTransform="translate(2213.68 -557.42) rotate(90)" xlink:href="#linear-gradient-5"/><radialGradient id="radial-gradient-3" cx="1105.02" cy="654.4" r="0.44" xlink:href="#radial-gradient-2"/><linearGradient id="linear-gradient-7" x1="1108.9" y1="653.38" x2="1108.9" y2="654.45" xlink:href="#linear-gradient-5"/><radialGradient id="radial-gradient-4" cx="1108.9" cy="653.91" r="0.44" xlink:href="#radial-gradient-2"/><linearGradient id="linear-gradient-8" x1="3645.64" y1="653.87" x2="3645.64" y2="654.94" gradientTransform="matrix(0, -1, -1, 0, 2213.68, 4185.47)" xlink:href="#linear-gradient-5"/><radialGradient id="radial-gradient-5" cx="3645.64" cy="654.4" r="0.44" gradientTransform="matrix(0, -1, -1, 0, 730.65, 3689.6)" xlink:href="#radial-gradient-2"/><linearGradient id="linear-gradient-9" x1="3649.52" y1="653.38" x2="3649.52" y2="654.45" gradientTransform="matrix(0, -1, -1, 0, 730.65, 3689.6)" xlink:href="#linear-gradient-5"/><radialGradient id="radial-gradient-6" cx="3649.52" cy="653.91" r="0.44" gradientTransform="matrix(0, -1, -1, 0, 730.65, 3689.6)" xlink:href="#radial-gradient-2"/><linearGradient id="linear-gradient-10" x1="1090.97" y1="633.45" x2="1111.3" y2="633.45" gradientTransform="translate(2213.68 -557.42) rotate(90)" gradientUnits="userSpaceOnUse"><stop offset="0" stop-color="#b2b2b2"/><stop offset="0.07" stop-color="#bebebe"/><stop offset="0.22" stop-color="#d4d4d4"/><stop offset="0.36" stop-color="#e1e1e1"/><stop offset="0.5" stop-color="#e5e5e5"/><stop offset="0.65" stop-color="#e2e2e2"/><stop offset="0.78" stop-color="#d7d7d7"/><stop offset="0.9" stop-color="#c5c5c5"/><stop offset="1" stop-color="#b2b2b2"/></linearGradient><linearGradient id="linear-gradient-11" x1="1053.3" y1="608.89" x2="1123.42" y2="608.89" gradientTransform="translate(730.65 -1053.3) rotate(90)" gradientUnits="userSpaceOnUse"><stop offset="0.5" stop-color="#e5e5e5"/><stop offset="0.63" stop-color="#e2e2e2"/><stop offset="0.74" stop-color="#d7d7d7"/><stop offset="0.84" stop-color="#c5c5c5"/><stop offset="0.94" stop-color="#adadad"/><stop offset="1" stop-color="#989898"/></linearGradient><linearGradient id="linear-gradient-12" x1="1075.1" y1="642.6" x2="1075.1" y2="598.21" gradientTransform="translate(730.65 -1053.3) rotate(90)" gradientUnits="userSpaceOnUse"><stop offset="0" stop-color="#c72828"/><stop offset="0.16" stop-color="#d63737"/><stop offset="0.43" stop-color="#e94a4a"/><stop offset="0.71" stop-color="#f55656"/><stop offset="1" stop-color="#f95a5a"/></linearGradient><radialGradient id="radial-gradient-7" cx="6438.27" cy="-4323.68" r="8.89" gradientTransform="matrix(0, -1, -3.67, 0, -14323.03, 7062.56)" xlink:href="#radial-gradient"/><linearGradient id="linear-gradient-13" x1="6429.4" y1="659.92" x2="6439.42" y2="662.05" gradientTransform="matrix(0, -1, -1, 0, 2213.68, 7062.56)" xlink:href="#linear-gradient"/><linearGradient id="linear-gradient-14" x1="1008.03" y1="659.92" x2="1018.05" y2="662.05" gradientTransform="translate(2213.68 -392.61) rotate(90)" xlink:href="#linear-gradient"/><linearGradient id="linear-gradient-15" x1="6430.28" y1="656.04" x2="6446.26" y2="656.04" gradientTransform="matrix(0, -1, -1, 0, 2213.68, 7062.56)" xlink:href="#linear-gradient-3"/><linearGradient id="linear-gradient-16" x1="6429.34" y1="653.9" x2="6447.21" y2="653.9" gradientTransform="matrix(0, -1, -1, 0, 2213.68, 7062.56)" xlink:href="#linear-gradient-3"/><linearGradient id="linear-gradient-17" x1="6438.27" y1="653.99" x2="6438.27" y2="655.05" gradientTransform="matrix(0, -1, -1, 0, 2213.68, 7062.56)" xlink:href="#linear-gradient-5"/><radialGradient id="radial-gradient-8" cx="6438.27" cy="654.52" r="0.44" gradientTransform="matrix(0, -1, -1, 0, 730.65, 6566.68)" xlink:href="#radial-gradient-2"/><linearGradient id="linear-gradient-18" x1="6442.15" y1="653.87" x2="6442.15" y2="654.94" gradientTransform="matrix(0, -1, -1, 0, 2213.68, 7062.56)" xlink:href="#linear-gradient-5"/><radialGradient id="radial-gradient-9" cx="6442.15" cy="654.4" r="0.44" gradientTransform="matrix(0, -1, -1, 0, 730.65, 6566.68)" xlink:href="#radial-gradient-2"/><linearGradient id="linear-gradient-19" x1="6446.03" y1="653.38" x2="6446.03" y2="654.45" gradientTransform="matrix(0, -1, -1, 0, 2213.68, 7062.56)" xlink:href="#linear-gradient-5"/><radialGradient id="radial-gradient-10" cx="6446.03" cy="653.91" r="0.44" gradientTransform="matrix(0, -1, -1, 0, 730.65, 6566.68)" xlink:href="#radial-gradient-2"/><linearGradient id="linear-gradient-20" x1="-1691.5" y1="653.87" x2="-1691.5" y2="654.94" gradientTransform="translate(2213.68 2319.66) rotate(90)" xlink:href="#linear-gradient-5"/><radialGradient id="radial-gradient-11" cx="-1691.5" cy="654.4" r="0.44" gradientTransform="translate(730.65 1823.79) rotate(90)" xlink:href="#radial-gradient-2"/><linearGradient id="linear-gradient-21" x1="-1687.62" y1="653.38" x2="-1687.62" y2="654.45" gradientTransform="translate(2213.68 2319.66) rotate(90)" xlink:href="#linear-gradient-5"/><radialGradient id="radial-gradient-12" cx="-1687.62" cy="653.91" r="0.44" gradientTransform="translate(730.65 1823.79) rotate(90)" xlink:href="#radial-gradient-2"/><linearGradient id="linear-gradient-22" x1="6428.1" y1="633.45" x2="6448.44" y2="633.45" gradientTransform="matrix(0, -1, -1, 0, 2213.68, 7062.56)" xlink:href="#linear-gradient-10"/><linearGradient id="linear-gradient-23" x1="6390.43" y1="608.89" x2="6460.55" y2="608.89" gradientTransform="matrix(0, -1, -1, 0, 730.65, 6566.68)" xlink:href="#linear-gradient-11"/><linearGradient id="linear-gradient-24" x1="6412.23" y1="642.6" x2="6412.23" y2="598.21" gradientTransform="matrix(0, -1, -1, 0, 730.65, 6566.68)" xlink:href="#linear-gradient-12"/><radialGradient id="radial-gradient-13" cx="1141.42" cy="-4322.02" r="16.46" xlink:href="#radial-gradient"/><linearGradient id="linear-gradient-25" x1="1124.98" y1="662.48" x2="1143.55" y2="666.42" xlink:href="#linear-gradient"/><linearGradient id="linear-gradient-26" x1="6297.31" y1="662.48" x2="6315.88" y2="666.42" gradientTransform="matrix(0, -1, -1, 0, 2213.68, 6897.75)" xlink:href="#linear-gradient"/><linearGradient id="linear-gradient-27" x1="1126.62" y1="655.29" x2="1156.22" y2="655.29" xlink:href="#linear-gradient-3"/><linearGradient id="linear-gradient-28" x1="1124.87" y1="651.34" x2="1157.98" y2="651.34" xlink:href="#linear-gradient-3"/><linearGradient id="linear-gradient-29" x1="1141.42" y1="651.49" x2="1141.42" y2="653.47" xlink:href="#linear-gradient-5"/><radialGradient id="radial-gradient-14" cx="1141.42" cy="652.48" r="0.82" gradientTransform="translate(2213.68 -557.42) rotate(90)" xlink:href="#radial-gradient-2"/><linearGradient id="linear-gradient-30" x1="1148.61" y1="651.28" x2="1148.61" y2="653.25" xlink:href="#linear-gradient-5"/><radialGradient id="radial-gradient-15" cx="1148.61" cy="652.26" r="0.82" xlink:href="#radial-gradient-2"/><linearGradient id="linear-gradient-31" x1="1155.8" y1="650.37" x2="1155.8" y2="652.34" xlink:href="#linear-gradient-5"/><radialGradient id="radial-gradient-16" cx="1155.8" cy="651.35" r="0.82" gradientTransform="translate(2213.68 -557.42) rotate(90)" xlink:href="#radial-gradient-2"/><linearGradient id="linear-gradient-32" x1="3608.66" y1="651.28" x2="3608.66" y2="653.25" gradientTransform="matrix(0, -1, -1, 0, 730.65, 3689.6)" xlink:href="#linear-gradient-5"/><radialGradient id="radial-gradient-17" cx="3608.66" cy="652.26" r="0.82" gradientTransform="matrix(0, -1, -1, 0, 730.65, 3689.6)" xlink:href="#radial-gradient-2"/><linearGradient id="linear-gradient-33" x1="3615.85" y1="650.37" x2="3615.85" y2="652.34" gradientTransform="matrix(0, -1, -1, 0, 730.65, 3689.6)" xlink:href="#linear-gradient-5"/><radialGradient id="radial-gradient-18" cx="3615.85" cy="651.35" r="0.82" gradientTransform="matrix(0, -1, -1, 0, 2213.68, 4185.47)" xlink:href="#radial-gradient-2"/><linearGradient id="linear-gradient-34" x1="1122.59" y1="568.41" x2="1160.26" y2="568.41" xlink:href="#linear-gradient-10"/><linearGradient id="linear-gradient-35" x1="1122.59" y1="504.01" x2="1160.26" y2="504.01" gradientTransform="translate(2213.68 -557.42) rotate(90)" gradientUnits="userSpaceOnUse"><stop offset="0" stop-color="#aa0b0b"/><stop offset="0.05" stop-color="#ba1b1b"/><stop offset="0.16" stop-color="#d63737"/><stop offset="0.27" stop-color="#e94a4a"/><stop offset="0.39" stop-color="#f55656"/><stop offset="0.5" stop-color="#f95a5a"/><stop offset="0.6" stop-color="#f35454"/><stop offset="0.73" stop-color="#e24343"/><stop offset="0.88" stop-color="#c72828"/><stop offset="1" stop-color="#aa0b0b"/></linearGradient><linearGradient id="linear-gradient-36" x1="1141.42" y1="549.66" x2="1141.42" y2="528.77" gradientTransform="translate(730.65 -1053.3) rotate(90)" gradientUnits="userSpaceOnUse"><stop offset="0" stop-color="#333"/><stop offset="1" stop-color="#f2f2f2"/></linearGradient><linearGradient id="linear-gradient-37" x1="1141.42" y1="549.39" x2="1141.42" y2="529.06" gradientTransform="translate(730.65 -1053.3) rotate(90)" gradientUnits="userSpaceOnUse"><stop offset="0" stop-color="#666"/><stop offset="0.05" stop-color="#636363"/><stop offset="0.09" stop-color="#595959"/><stop offset="0.12" stop-color="#484848"/><stop offset="0.15" stop-color="#333"/><stop offset="0.16" stop-color="#464646"/><stop offset="0.17" stop-color="#616161"/><stop offset="0.18" stop-color="#777"/><stop offset="0.19" stop-color="#868686"/><stop offset="0.2" stop-color="#8e8e8e"/><stop offset="0.22" stop-color="#919191"/><stop offset="0.32" stop-color="#ccc"/><stop offset="0.33" stop-color="#f2f2f2"/><stop offset="0.54" stop-color="#d6d6d6"/><stop offset="0.66" stop-color="#f2f2f2"/><stop offset="0.79" stop-color="#aeaeae"/><stop offset="1" stop-color="#e6e6e6"/></linearGradient><linearGradient id="linear-gradient-38" x1="1141.42" y1="531.86" x2="1141.42" y2="547.63" gradientTransform="translate(2909.01 846.84) rotate(166.72)" gradientUnits="userSpaceOnUse"><stop offset="0" stop-color="#333"/><stop offset="1" stop-color="#fff"/></linearGradient><radialGradient id="radial-gradient-19" cx="1141.42" cy="539.52" r="7.74" gradientTransform="translate(2909.01 846.84) rotate(166.72)" gradientUnits="userSpaceOnUse"><stop offset="0" stop-color="#73b7f9"/><stop offset="0.17" stop-color="#6eb2f5"/><stop offset="0.36" stop-color="#60a4e9"/><stop offset="0.57" stop-color="#488dd5"/><stop offset="0.79" stop-color="#276dba"/><stop offset="1" stop-color="#004699"/></radialGradient><linearGradient id="linear-gradient-39" x1="1141.42" y1="529.36" x2="1141.42" y2="530.56" gradientTransform="translate(2213.68 -557.42) rotate(90)" xlink:href="#linear-gradient-5"/><radialGradient id="radial-gradient-20" cx="1141.42" cy="529.96" r="0.5" xlink:href="#radial-gradient-2"/><linearGradient id="linear-gradient-40" x1="1141.42" y1="548.47" x2="1141.42" y2="549.68" gradientTransform="translate(2213.68 -557.42) rotate(90)" xlink:href="#linear-gradient-5"/><radialGradient id="radial-gradient-21" cx="1141.42" cy="549.07" r="0.5" gradientTransform="translate(2213.68 -557.42) rotate(90)" xlink:href="#radial-gradient-2"/><linearGradient id="linear-gradient-41" x1="890.49" y1="278.42" x2="890.49" y2="279.62" gradientTransform="translate(1953.19 -296.93) rotate(90)" xlink:href="#linear-gradient-5"/><radialGradient id="radial-gradient-22" cx="890.49" cy="279.02" r="0.5" gradientTransform="translate(470.16 -792.8) rotate(90)" xlink:href="#radial-gradient-2"/><linearGradient id="linear-gradient-42" x1="1392.36" y1="799.41" x2="1392.36" y2="800.61" gradientTransform="translate(2474.18 -817.91) rotate(90)" xlink:href="#linear-gradient-5"/><radialGradient id="radial-gradient-23" cx="1392.36" cy="800.01" r="0.5" gradientTransform="translate(991.14 -1313.79) rotate(90)" xlink:href="#radial-gradient-2"/><linearGradient id="linear-gradient-43" x1="963.98" y1="455.86" x2="963.98" y2="457.06" gradientTransform="translate(2137.39 -373.22) rotate(90)" xlink:href="#linear-gradient-5"/><radialGradient id="radial-gradient-24" cx="963.98" cy="456.46" r="0.5" gradientTransform="translate(2137.39 -373.22) rotate(90)" xlink:href="#radial-gradient-2"/><linearGradient id="linear-gradient-44" x1="1318.86" y1="621.97" x2="1318.86" y2="623.17" gradientTransform="translate(2289.98 -741.62) rotate(90)" xlink:href="#linear-gradient-5"/><radialGradient id="radial-gradient-25" cx="1318.86" cy="622.57" r="0.5" gradientTransform="translate(806.95 -1237.49) rotate(90)" xlink:href="#radial-gradient-2"/><linearGradient id="linear-gradient-45" x1="963.98" y1="100.98" x2="963.98" y2="102.19" gradientTransform="translate(1768.99 -373.22) rotate(90)" xlink:href="#linear-gradient-5"/><radialGradient id="radial-gradient-26" cx="963.98" cy="101.58" r="0.5" gradientTransform="translate(1768.99 -373.22) rotate(90)" xlink:href="#radial-gradient-2"/><linearGradient id="linear-gradient-46" x1="1318.86" y1="976.85" x2="1318.86" y2="978.05" gradientTransform="translate(2658.37 -741.62) rotate(90)" xlink:href="#linear-gradient-5"/><radialGradient id="radial-gradient-27" cx="1318.86" cy="977.45" r="0.5" gradientTransform="translate(1175.34 -1237.49) rotate(90)" xlink:href="#radial-gradient-2"/><linearGradient id="linear-gradient-47" x1="1141.42" y1="581.23" x2="1141.42" y2="560.34" xlink:href="#linear-gradient-36"/><linearGradient id="linear-gradient-48" x1="1141.42" y1="580.96" x2="1141.42" y2="560.63" xlink:href="#linear-gradient-37"/><linearGradient id="linear-gradient-49" x1="1141.42" y1="563.43" x2="1141.42" y2="579.2" gradientTransform="translate(730.65 -1053.3) rotate(90)" xlink:href="#linear-gradient-38"/><radialGradient id="radial-gradient-28" cx="1141.42" cy="571.09" r="7.74" gradientTransform="translate(730.65 -1053.3) rotate(90)" xlink:href="#radial-gradient-19"/><linearGradient id="linear-gradient-50" x1="1141.42" y1="560.93" x2="1141.42" y2="562.13" gradientTransform="translate(2213.68 -557.42) rotate(90)" xlink:href="#linear-gradient-5"/><radialGradient id="radial-gradient-29" cx="1141.42" cy="561.53" r="0.5" xlink:href="#radial-gradient-2"/><linearGradient id="linear-gradient-51" x1="1141.42" y1="580.04" x2="1141.42" y2="581.25" gradientTransform="translate(2213.68 -557.42) rotate(90)" xlink:href="#linear-gradient-5"/><radialGradient id="radial-gradient-30" cx="1141.42" cy="580.64" r="0.5" xlink:href="#radial-gradient-2"/><linearGradient id="linear-gradient-52" x1="890.49" y1="309.99" x2="890.49" y2="311.2" gradientTransform="translate(1953.19 -296.93) rotate(90)" xlink:href="#linear-gradient-5"/><radialGradient id="radial-gradient-31" cx="890.49" cy="310.59" r="0.5" gradientTransform="translate(470.16 -792.8) rotate(90)" xlink:href="#radial-gradient-2"/><linearGradient id="linear-gradient-53" x1="1392.36" y1="830.98" x2="1392.36" y2="832.18" gradientTransform="translate(2474.18 -817.91) rotate(90)" xlink:href="#linear-gradient-5"/><radialGradient id="radial-gradient-32" cx="1392.36" cy="831.58" r="0.5" gradientTransform="translate(991.14 -1313.79) rotate(90)" xlink:href="#radial-gradient-2"/><linearGradient id="linear-gradient-54" x1="963.98" y1="487.43" x2="963.98" y2="488.64" gradientTransform="translate(2137.39 -373.22) rotate(90)" xlink:href="#linear-gradient-5"/><radialGradient id="radial-gradient-33" cx="963.98" cy="488.03" r="0.5" gradientTransform="translate(2137.39 -373.22) rotate(90)" xlink:href="#radial-gradient-2"/><linearGradient id="linear-gradient-55" x1="1318.86" y1="653.54" x2="1318.86" y2="654.74" gradientTransform="translate(2289.98 -741.62) rotate(90)" xlink:href="#linear-gradient-5"/><radialGradient id="radial-gradient-34" cx="1318.86" cy="654.14" r="0.5" gradientTransform="translate(806.95 -1237.49) rotate(90)" xlink:href="#radial-gradient-2"/><linearGradient id="linear-gradient-56" x1="963.98" y1="132.55" x2="963.98" y2="133.76" gradientTransform="translate(1768.99 -373.22) rotate(90)" xlink:href="#linear-gradient-5"/><radialGradient id="radial-gradient-35" cx="963.98" cy="133.15" r="0.5" gradientTransform="translate(1768.99 -373.22) rotate(90)" xlink:href="#radial-gradient-2"/><linearGradient id="linear-gradient-57" x1="1318.86" y1="1008.42" x2="1318.86" y2="1009.62" gradientTransform="translate(2658.37 -741.62) rotate(90)" xlink:href="#linear-gradient-5"/><radialGradient id="radial-gradient-36" cx="1318.86" cy="1009.02" r="0.5" gradientTransform="translate(1175.34 -1237.49) rotate(90)" xlink:href="#radial-gradient-2"/></defs><path class="cls-1" d="M1549.78,534.81h-1.63c-17.22,0-31.18,4-31.18,8.92s14,8.92,31.18,8.92l1.63,0Z" transform="translate(-1483.03 -495.88)"/><path class="cls-2" d="M1558.36,537.25l-9.69-3.49h0a.47.47,0,0,0-.17,0c-1.25,0-2.26,4.47-2.26,10h12.12Z" transform="translate(-1483.03 -495.88)"/><path class="cls-3" d="M1558.36,550.18l-9.69,3.49h0a.47.47,0,0,1-.17,0c-1.25,0-2.26-4.47-2.26-10h12.12Z" transform="translate(-1483.03 -495.88)"/><path class="cls-4" d="M1555.93,551.06a41.82,41.82,0,0,1,0-14.69l2.43.88v12.93Z" transform="translate(-1483.03 -495.88)"/><path class="cls-5" d="M1559.36,551.71H1557c-.59,0-1.08-3.58-1.08-8s.49-8,1.08-8h2.35Z" transform="translate(-1483.03 -495.88)"/><path class="cls-4" d="M1559.36,551.71H1558a48,48,0,0,1,0-16h1.33Z" transform="translate(-1483.03 -495.88)"/><path class="cls-6" d="M1561.7,534.78h-2.63c-.67,0-1.21,4-1.21,8.94s.54,8.93,1.21,8.93h2.63Z" transform="translate(-1483.03 -495.88)"/><path class="cls-7" d="M1549,553.54c-1.06-.83-1.86-4.91-1.86-9.82s.8-9,1.86-9.83l.19.07c-1,1-1.78,5-1.78,9.76s.76,8.79,1.78,9.76Z" transform="translate(-1483.03 -495.88)"/><path class="cls-8" d="M1549.21,553.48c-1-1-1.78-5-1.78-9.76s.76-8.8,1.78-9.76l.16,0c-1,1.07-1.72,5-1.72,9.71s.73,8.64,1.72,9.7Z" transform="translate(-1483.03 -495.88)"/><path class="cls-7" d="M1551.49,552.65c-1-.71-1.71-4.44-1.71-8.93s.74-8.22,1.71-8.94l.17.06c-.93.84-1.64,4.5-1.64,8.88s.71,8,1.64,8.87Z" transform="translate(-1483.03 -495.88)"/><path class="cls-8" d="M1551.66,552.59c-.93-.84-1.64-4.5-1.64-8.87s.71-8,1.64-8.88l.15,0c-.91.94-1.58,4.53-1.58,8.83s.67,7.88,1.58,8.82Z" transform="translate(-1483.03 -495.88)"/><path class="cls-7" d="M1554,551.74c-.85-.75-1.48-4.06-1.48-8s.63-7.28,1.48-8l.16.06c-.82.85-1.43,4.09-1.43,8s.61,7.11,1.43,8Z" transform="translate(-1483.03 -495.88)"/><path class="cls-8" d="M1554.19,551.68c-.82-.85-1.43-4.09-1.43-8s.61-7.12,1.43-8l.14,0c-.8.92-1.38,4.11-1.38,7.92s.58,7,1.38,7.91Z" transform="translate(-1483.03 -495.88)"/><circle class="cls-9" cx="76.13" cy="47.84" r="0.53"/><circle class="cls-10" cx="76.13" cy="47.84" r="0.44"/><path class="cls-11" d="M1559.33,544c-.09,0-.16-.15-.16-.32s.07-.32.16-.32.22.14.22.32S1559.42,544,1559.33,544Z" transform="translate(-1483.03 -495.88)"/><path class="cls-12" d="M1559.28,548.13a.54.54,0,0,1,0-1.07.54.54,0,0,1,0,1.07Z" transform="translate(-1483.03 -495.88)"/><circle class="cls-13" cx="76.24" cy="51.72" r="0.44"/><path class="cls-11" d="M1559.44,547.91c-.08,0-.16-.14-.16-.31s.08-.32.16-.32.22.14.22.32S1559.53,547.91,1559.44,547.91Z" transform="translate(-1483.03 -495.88)"/><circle class="cls-14" cx="76.74" cy="55.6" r="0.53"/><circle class="cls-15" cx="76.74" cy="55.6" r="0.44"/><path class="cls-11" d="M1559.93,551.79c-.08,0-.15-.14-.15-.32s.07-.31.15-.31.22.14.22.31S1560,551.79,1559.93,551.79Z" transform="translate(-1483.03 -495.88)"/><path class="cls-16" d="M1559.28,539.3a.54.54,0,1,0,.53.54A.54.54,0,0,0,1559.28,539.3Z" transform="translate(-1483.03 -495.88)"/><circle class="cls-17" cx="76.24" cy="43.96" r="0.44"/><path class="cls-11" d="M1559.44,539.52c-.08,0-.16.14-.16.32s.08.32.16.32.22-.15.22-.32S1559.53,539.52,1559.44,539.52Z" transform="translate(-1483.03 -495.88)"/><circle class="cls-18" cx="76.74" cy="40.08" r="0.53"/><circle class="cls-19" cx="76.74" cy="40.08" r="0.44"/><path class="cls-11" d="M1559.93,535.64c-.08,0-.15.14-.15.32s.07.32.15.32.22-.15.22-.32S1560,535.64,1559.93,535.64Z" transform="translate(-1483.03 -495.88)"/><path class="cls-20" d="M1599.83,533.55h-37.78c-.78,0-1.42,4.55-1.42,10.17s.64,10.16,1.42,10.16h37.78Z" transform="translate(-1483.03 -495.88)"/><polygon class="cls-21" points="155.47 70.12 119.49 0 88.05 0 88.05 70.12 155.47 70.12"/><polygon class="cls-22" points="128.92 18.37 88.05 18.37 88.05 25.23 132.44 25.23 128.92 18.37"/><path class="cls-23" d="M1549.78,633.2h-1.63c-17.22,0-31.18-4-31.18-8.92s14-8.92,31.18-8.92h1.63Z" transform="translate(-1483.03 -495.88)"/><path class="cls-24" d="M1558.36,630.76l-9.69,3.48h0a.47.47,0,0,1-.17,0c-1.25,0-2.26-4.47-2.26-10h12.12Z" transform="translate(-1483.03 -495.88)"/><path class="cls-25" d="M1558.36,617.82l-9.69-3.48h0a.47.47,0,0,0-.17,0c-1.25,0-2.26,4.47-2.26,10h12.12Z" transform="translate(-1483.03 -495.88)"/><path class="cls-4" d="M1555.93,617a41.77,41.77,0,0,0,0,14.68l2.43-.87V617.82Z" transform="translate(-1483.03 -495.88)"/><path class="cls-26" d="M1559.36,616.3H1557c-.59,0-1.08,3.58-1.08,8s.49,8,1.08,8h2.35Z" transform="translate(-1483.03 -495.88)"/><path class="cls-4" d="M1559.36,616.3H1558a48,48,0,0,0,0,16h1.33Z" transform="translate(-1483.03 -495.88)"/><path class="cls-27" d="M1561.7,633.22h-2.63c-.67,0-1.21-4-1.21-8.93s.54-8.94,1.21-8.94h2.63Z" transform="translate(-1483.03 -495.88)"/><path class="cls-7" d="M1549,614.46c-1.06.83-1.86,4.92-1.86,9.83s.8,9,1.86,9.83l.19-.07c-1-1-1.78-5-1.78-9.76s.76-8.8,1.78-9.76Z" transform="translate(-1483.03 -495.88)"/><path class="cls-8" d="M1549.21,614.53c-1,1-1.78,5-1.78,9.76s.76,8.79,1.78,9.76l.16-.06c-1-1.06-1.72-5-1.72-9.7s.73-8.64,1.72-9.7Z" transform="translate(-1483.03 -495.88)"/><path class="cls-7" d="M1551.49,615.35c-1,.72-1.71,4.45-1.71,8.94s.74,8.22,1.71,8.94l.17-.06c-.93-.85-1.64-4.5-1.64-8.88s.71-8,1.64-8.88Z" transform="translate(-1483.03 -495.88)"/><path class="cls-8" d="M1551.66,615.41c-.93.85-1.64,4.5-1.64,8.88s.71,8,1.64,8.88l.15,0c-.91-.94-1.58-4.54-1.58-8.83s.67-7.89,1.58-8.83Z" transform="translate(-1483.03 -495.88)"/><path class="cls-7" d="M1554,616.26c-.85.76-1.48,4.06-1.48,8s.63,7.27,1.48,8l.16,0c-.82-.85-1.43-4.1-1.43-8s.61-7.12,1.43-8Z" transform="translate(-1483.03 -495.88)"/><path class="cls-8" d="M1554.19,616.32c-.82.85-1.43,4.1-1.43,8s.61,7.12,1.43,8l.14,0c-.8-.92-1.38-4.12-1.38-7.92s.58-7,1.38-7.92Z" transform="translate(-1483.03 -495.88)"/><path class="cls-28" d="M1559.16,623.76a.53.53,0,1,0,.54.53A.53.53,0,0,0,1559.16,623.76Z" transform="translate(-1483.03 -495.88)"/><circle class="cls-29" cx="76.13" cy="128.41" r="0.44"/><path class="cls-11" d="M1559.33,624c-.09,0-.16.14-.16.32s.07.32.16.32.22-.14.22-.32S1559.42,624,1559.33,624Z" transform="translate(-1483.03 -495.88)"/><path class="cls-30" d="M1559.28,619.88a.53.53,0,1,0,0,1.06.53.53,0,1,0,0-1.06Z" transform="translate(-1483.03 -495.88)"/><circle class="cls-31" cx="76.24" cy="124.53" r="0.44"/><path class="cls-11" d="M1559.44,620.09c-.08,0-.16.14-.16.32s.08.32.16.32.22-.14.22-.32S1559.53,620.09,1559.44,620.09Z" transform="translate(-1483.03 -495.88)"/><path class="cls-32" d="M1559.77,616a.53.53,0,0,0,0,1.06.53.53,0,0,0,0-1.06Z" transform="translate(-1483.03 -495.88)"/><circle class="cls-33" cx="76.74" cy="120.65" r="0.44"/><path class="cls-11" d="M1559.93,616.21c-.08,0-.15.14-.15.32s.07.32.15.32.22-.14.22-.32S1560,616.21,1559.93,616.21Z" transform="translate(-1483.03 -495.88)"/><path class="cls-34" d="M1559.28,628.7a.53.53,0,0,1-.53-.53.52.52,0,0,1,.53-.53.53.53,0,0,1,.53.53A.53.53,0,0,1,1559.28,628.7Z" transform="translate(-1483.03 -495.88)"/><circle class="cls-35" cx="76.24" cy="132.29" r="0.44"/><path class="cls-11" d="M1559.44,628.49c-.08,0-.16-.14-.16-.32s.08-.32.16-.32.22.14.22.32S1559.53,628.49,1559.44,628.49Z" transform="translate(-1483.03 -495.88)"/><path class="cls-36" d="M1559.77,632.58a.53.53,0,0,1-.53-.53.53.53,0,0,1,.53-.53.52.52,0,0,1,.53.53A.53.53,0,0,1,1559.77,632.58Z" transform="translate(-1483.03 -495.88)"/><circle class="cls-37" cx="76.74" cy="136.17" r="0.44"/><path class="cls-11" d="M1559.93,632.37c-.08,0-.15-.14-.15-.32s.07-.32.15-.32.22.14.22.32S1560,632.37,1559.93,632.37Z" transform="translate(-1483.03 -495.88)"/><path class="cls-38" d="M1599.83,634.46h-37.78c-.78,0-1.42-4.56-1.42-10.17s.64-10.17,1.42-10.17h37.78Z" transform="translate(-1483.03 -495.88)"/><polygon class="cls-39" points="155.47 106.13 119.49 176.25 88.05 176.25 88.05 106.13 155.47 106.13"/><polygon class="cls-40" points="128.92 157.88 88.05 157.88 88.05 151.02 132.44 151.02 128.92 157.88"/><path class="cls-41" d="M1543.83,567.5l-3,0c-31.91,0-57.78,7.4-57.78,16.52s25.87,16.53,57.78,16.53c1,0,2,0,3,0Z" transform="translate(-1483.03 -495.88)"/><path class="cls-42" d="M1559.72,572l-18-6.45h0a.87.87,0,0,0-.32-.06c-2.31,0-4.19,8.28-4.19,18.49h22.46Z" transform="translate(-1483.03 -495.88)"/><path class="cls-43" d="M1559.72,596l-18,6.46h0a.87.87,0,0,1-.32.06c-2.31,0-4.19-8.28-4.19-18.5h22.46Z" transform="translate(-1483.03 -495.88)"/><path class="cls-4" d="M1555.21,597.6c-.71-2.26-1.21-7.5-1.21-13.6s.5-11.33,1.21-13.6l4.51,1.62v24Z" transform="translate(-1483.03 -495.88)"/><path class="cls-44" d="M1561.58,598.8h-4.36c-1.1,0-2-6.62-2-14.8s.9-14.8,2-14.8h4.36Z" transform="translate(-1483.03 -495.88)"/><path class="cls-4" d="M1561.58,598.8h-2.48c-.73-2.72-1.24-8.32-1.24-14.8s.51-12.08,1.24-14.8h2.48Z" transform="translate(-1483.03 -495.88)"/><path class="cls-45" d="M1565.9,567.45H1561c-1.24,0-2.24,7.41-2.24,16.55s1,16.55,2.24,16.55h4.87Z" transform="translate(-1483.03 -495.88)"/><path class="cls-7" d="M1542.41,602.21c-2-1.54-3.44-9.11-3.44-18.21s1.49-16.66,3.44-18.2l.35.12c-1.88,1.79-3.3,9.21-3.3,18.08s1.42,16.29,3.3,18.08Z" transform="translate(-1483.03 -495.88)"/><path class="cls-8" d="M1542.76,602.08c-1.88-1.79-3.3-9.2-3.3-18.08s1.42-16.29,3.3-18.08l.31.11c-1.84,2-3.2,9.27-3.2,18s1.36,16,3.2,18Z" transform="translate(-1483.03 -495.88)"/><path class="cls-7" d="M1547,600.56c-1.8-1.33-3.16-8.24-3.16-16.56s1.36-15.23,3.16-16.56l.31.11c-1.73,1.57-3,8.34-3,16.45s1.3,14.88,3,16.45Z" transform="translate(-1483.03 -495.88)"/><path class="cls-8" d="M1547.3,600.45c-1.73-1.57-3-8.34-3-16.45s1.3-14.88,3-16.45l.28.1c-1.68,1.74-2.93,8.4-2.93,16.35s1.25,14.61,2.93,16.35Z" transform="translate(-1483.03 -495.88)"/><path class="cls-7" d="M1551.7,598.87c-1.57-1.4-2.75-7.52-2.75-14.87s1.18-13.47,2.75-14.86l.29.1c-1.51,1.58-2.64,7.59-2.64,14.76s1.13,13.19,2.64,14.76Z" transform="translate(-1483.03 -495.88)"/><path class="cls-8" d="M1552,598.76c-1.51-1.57-2.64-7.58-2.64-14.76s1.13-13.18,2.64-14.76l.26.09c-1.47,1.71-2.56,7.63-2.56,14.67s1.09,13,2.56,14.67Z" transform="translate(-1483.03 -495.88)"/><circle class="cls-46" cx="78.17" cy="88.13" r="0.99"/><path class="cls-47" d="M1561.21,584.83a.83.83,0,1,1,.82-.83A.83.83,0,0,1,1561.21,584.83Z" transform="translate(-1483.03 -495.88)"/><path class="cls-11" d="M1561.51,584.59c-.16,0-.29-.26-.29-.59s.13-.59.29-.59.41.27.41.59S1561.67,584.59,1561.51,584.59Z" transform="translate(-1483.03 -495.88)"/><circle class="cls-48" cx="78.39" cy="95.31" r="0.99"/><circle class="cls-49" cx="78.39" cy="95.31" r="0.82"/><path class="cls-11" d="M1561.72,591.78c-.16,0-.29-.26-.29-.59s.13-.59.29-.59.41.26.41.59S1561.89,591.78,1561.72,591.78Z" transform="translate(-1483.03 -495.88)"/><circle class="cls-50" cx="79.3" cy="102.5" r="0.99"/><path class="cls-51" d="M1562.33,599.2a.83.83,0,1,1,.82-.82A.82.82,0,0,1,1562.33,599.2Z" transform="translate(-1483.03 -495.88)"/><path class="cls-11" d="M1562.63,599c-.16,0-.29-.27-.29-.59s.13-.6.29-.6.41.27.41.6S1562.8,599,1562.63,599Z" transform="translate(-1483.03 -495.88)"/><circle class="cls-52" cx="78.39" cy="80.94" r="0.99"/><circle class="cls-53" cx="78.39" cy="80.94" r="0.82"/><path class="cls-11" d="M1561.72,576.22c-.16,0-.29.27-.29.6s.13.59.29.59.41-.27.41-.59S1561.89,576.22,1561.72,576.22Z" transform="translate(-1483.03 -495.88)"/><circle class="cls-54" cx="79.3" cy="73.75" r="0.99"/><path class="cls-55" d="M1562.33,568.8a.83.83,0,0,0,0,1.65.83.83,0,0,0,0-1.65Z" transform="translate(-1483.03 -495.88)"/><path class="cls-11" d="M1562.63,569c-.16,0-.29.26-.29.59s.13.59.29.59.41-.26.41-.59S1562.8,569,1562.63,569Z" transform="translate(-1483.03 -495.88)"/><path class="cls-56" d="M1726.63,584h0a18.83,18.83,0,0,0-18.83-18.83H1566.56c-1.46,0-2.64,8.43-2.64,18.83s1.18,18.84,2.64,18.84H1707.8A18.84,18.84,0,0,0,1726.63,584Z" transform="translate(-1483.03 -495.88)"/><path class="cls-57" d="M1726.63,584h0a18.83,18.83,0,0,0-18.83-18.83h-15.09c1.41,0,2.55,8.43,2.55,18.83s-1.14,18.84-2.55,18.84h15.09A18.84,18.84,0,0,0,1726.63,584Z" transform="translate(-1483.03 -495.88)"/><circle class="cls-58" cx="191.13" cy="88.13" r="10.87"/><circle class="cls-59" cx="191.13" cy="88.13" r="10.58"/><circle class="cls-60" cx="1674.17" cy="584" r="8.2" transform="translate(-761.89 1583.33) rotate(-76.72)"/><circle class="cls-61" cx="1674.17" cy="584" r="7.74" transform="translate(-761.89 1583.33) rotate(-76.72)"/><path class="cls-11" d="M1677,589.57c-1.53,0-2.76-2.49-2.76-5.57s1.23-5.56,2.76-5.56,3.81,2.49,3.81,5.56S1678.54,589.57,1677,589.57Z" transform="translate(-1483.03 -495.88)"/><path class="cls-62" d="M1683.72,584.6a.6.6,0,0,1-.6-.6.61.61,0,1,1,.6.6Z" transform="translate(-1483.03 -495.88)"/><circle class="cls-63" cx="200.69" cy="88.13" r="0.5"/><path class="cls-11" d="M1683.91,584.36c-.1,0-.18-.16-.18-.36s.08-.36.18-.36.25.16.25.36S1684,584.36,1683.91,584.36Z" transform="translate(-1483.03 -495.88)"/><path class="cls-64" d="M1664.61,584.6a.6.6,0,0,1-.6-.6.6.6,0,0,1,1.2,0A.6.6,0,0,1,1664.61,584.6Z" transform="translate(-1483.03 -495.88)"/><path class="cls-65" d="M1664.61,584.5a.5.5,0,0,1-.5-.5.5.5,0,1,1,1,0A.5.5,0,0,1,1664.61,584.5Z" transform="translate(-1483.03 -495.88)"/><path class="cls-11" d="M1664.8,584.36c-.1,0-.18-.16-.18-.36s.08-.36.18-.36.24.16.24.36S1664.9,584.36,1664.8,584.36Z" transform="translate(-1483.03 -495.88)"/><path class="cls-66" d="M1674.17,594.16a.6.6,0,0,1,0-1.2.6.6,0,1,1,0,1.2Z" transform="translate(-1483.03 -495.88)"/><circle class="cls-67" cx="191.13" cy="97.68" r="0.5"/><path class="cls-11" d="M1674.35,593.92c-.1,0-.18-.16-.18-.36s.08-.36.18-.36.25.16.25.36S1674.45,593.92,1674.35,593.92Z" transform="translate(-1483.03 -495.88)"/><path class="cls-68" d="M1674.17,575.05a.61.61,0,0,1,0-1.21.61.61,0,0,1,0,1.21Z" transform="translate(-1483.03 -495.88)"/><circle class="cls-69" cx="191.13" cy="78.57" r="0.5"/><path class="cls-11" d="M1674.35,574.81c-.1,0-.18-.16-.18-.36s.08-.36.18-.36.25.16.25.36S1674.45,574.81,1674.35,574.81Z" transform="translate(-1483.03 -495.88)"/><path class="cls-70" d="M1680.92,591.36a.6.6,0,1,1,.61-.6A.6.6,0,0,1,1680.92,591.36Z" transform="translate(-1483.03 -495.88)"/><path class="cls-71" d="M1680.92,591.26a.5.5,0,1,1,.51-.5A.5.5,0,0,1,1680.92,591.26Z" transform="translate(-1483.03 -495.88)"/><path class="cls-11" d="M1681.11,591.12c-.1,0-.18-.16-.18-.36s.08-.36.18-.36.25.16.25.36S1681.21,591.12,1681.11,591.12Z" transform="translate(-1483.03 -495.88)"/><path class="cls-72" d="M1667.41,577.85a.61.61,0,1,1,.6-.6A.6.6,0,0,1,1667.41,577.85Z" transform="translate(-1483.03 -495.88)"/><circle class="cls-73" cx="184.38" cy="81.37" r="0.5"/><path class="cls-11" d="M1667.6,577.61c-.1,0-.18-.17-.18-.36s.08-.37.18-.37.24.17.24.37S1667.69,577.61,1667.6,577.61Z" transform="translate(-1483.03 -495.88)"/><path class="cls-74" d="M1667.41,591.36a.6.6,0,1,1,.6-.6A.6.6,0,0,1,1667.41,591.36Z" transform="translate(-1483.03 -495.88)"/><path class="cls-75" d="M1667.41,591.26a.5.5,0,1,1,.5-.5A.5.5,0,0,1,1667.41,591.26Z" transform="translate(-1483.03 -495.88)"/><path class="cls-11" d="M1667.6,591.12c-.1,0-.18-.16-.18-.36s.08-.36.18-.36.24.16.24.36S1667.69,591.12,1667.6,591.12Z" transform="translate(-1483.03 -495.88)"/><path class="cls-76" d="M1680.92,577.85a.61.61,0,1,1,.61-.6A.6.6,0,0,1,1680.92,577.85Z" transform="translate(-1483.03 -495.88)"/><circle class="cls-77" cx="197.89" cy="81.37" r="0.5"/><path class="cls-11" d="M1681.11,577.61c-.1,0-.18-.17-.18-.36s.08-.37.18-.37.25.17.25.37S1681.21,577.61,1681.11,577.61Z" transform="translate(-1483.03 -495.88)"/><circle class="cls-78" cx="159.56" cy="88.13" r="10.87"/><circle class="cls-79" cx="159.56" cy="88.13" r="10.58"/><circle class="cls-80" cx="159.56" cy="88.13" r="8.2"/><circle class="cls-81" cx="159.56" cy="88.13" r="7.74"/><path class="cls-11" d="M1645.45,589.57c-1.53,0-2.76-2.49-2.76-5.57s1.23-5.56,2.76-5.56,3.81,2.49,3.81,5.56S1647,589.57,1645.45,589.57Z" transform="translate(-1483.03 -495.88)"/><path class="cls-82" d="M1652.15,584.6a.6.6,0,0,1-.6-.6.61.61,0,1,1,.6.6Z" transform="translate(-1483.03 -495.88)"/><circle class="cls-83" cx="169.12" cy="88.13" r="0.5"/><path class="cls-11" d="M1652.34,584.36c-.1,0-.18-.16-.18-.36s.08-.36.18-.36.25.16.25.36S1652.44,584.36,1652.34,584.36Z" transform="translate(-1483.03 -495.88)"/><path class="cls-84" d="M1633,584.6a.6.6,0,0,1-.6-.6.6.6,0,0,1,1.2,0A.6.6,0,0,1,1633,584.6Z" transform="translate(-1483.03 -495.88)"/><circle class="cls-85" cx="150.01" cy="88.13" r="0.5"/><path class="cls-11" d="M1633.23,584.36c-.1,0-.18-.16-.18-.36s.08-.36.18-.36.24.16.24.36S1633.32,584.36,1633.23,584.36Z" transform="translate(-1483.03 -495.88)"/><path class="cls-86" d="M1642.6,594.16a.6.6,0,1,1,.6-.6A.6.6,0,0,1,1642.6,594.16Z" transform="translate(-1483.03 -495.88)"/><circle class="cls-87" cx="159.56" cy="97.68" r="0.5"/><path class="cls-11" d="M1642.78,593.92c-.1,0-.18-.16-.18-.36s.08-.36.18-.36.25.16.25.36S1642.88,593.92,1642.78,593.92Z" transform="translate(-1483.03 -495.88)"/><path class="cls-88" d="M1642.6,575.05a.61.61,0,1,1,.6-.6A.6.6,0,0,1,1642.6,575.05Z" transform="translate(-1483.03 -495.88)"/><circle class="cls-89" cx="159.56" cy="78.57" r="0.5"/><path class="cls-11" d="M1642.78,574.81c-.1,0-.18-.16-.18-.36s.08-.36.18-.36.25.16.25.36S1642.88,574.81,1642.78,574.81Z" transform="translate(-1483.03 -495.88)"/><path class="cls-90" d="M1649.35,591.36a.6.6,0,1,1,.61-.6A.6.6,0,0,1,1649.35,591.36Z" transform="translate(-1483.03 -495.88)"/><path class="cls-91" d="M1649.35,591.26a.5.5,0,1,1,.51-.5A.5.5,0,0,1,1649.35,591.26Z" transform="translate(-1483.03 -495.88)"/><path class="cls-11" d="M1649.54,591.12c-.1,0-.18-.16-.18-.36s.08-.36.18-.36.25.16.25.36S1649.64,591.12,1649.54,591.12Z" transform="translate(-1483.03 -495.88)"/><path class="cls-92" d="M1635.84,577.85a.61.61,0,1,1,.6-.6A.6.6,0,0,1,1635.84,577.85Z" transform="translate(-1483.03 -495.88)"/><circle class="cls-93" cx="152.8" cy="81.37" r="0.5"/><path class="cls-11" d="M1636,577.61c-.09,0-.18-.17-.18-.36s.09-.37.18-.37.25.17.25.37S1636.12,577.61,1636,577.61Z" transform="translate(-1483.03 -495.88)"/><path class="cls-94" d="M1635.84,591.36a.6.6,0,1,1,.6-.6A.6.6,0,0,1,1635.84,591.36Z" transform="translate(-1483.03 -495.88)"/><path class="cls-95" d="M1635.84,591.26a.5.5,0,1,1,.5-.5A.5.5,0,0,1,1635.84,591.26Z" transform="translate(-1483.03 -495.88)"/><path class="cls-11" d="M1636,591.12c-.09,0-.18-.16-.18-.36s.09-.36.18-.36.25.16.25.36S1636.12,591.12,1636,591.12Z" transform="translate(-1483.03 -495.88)"/><path class="cls-96" d="M1649.35,577.85a.61.61,0,1,1,.61-.6A.6.6,0,0,1,1649.35,577.85Z" transform="translate(-1483.03 -495.88)"/><circle class="cls-97" cx="166.32" cy="81.37" r="0.5"/><path class="cls-11" d="M1649.54,577.61c-.1,0-.18-.17-.18-.36s.08-.37.18-.37.25.17.25.37S1649.64,577.61,1649.54,577.61Z" transform="translate(-1483.03 -495.88)"/></svg>