<svg width="30" height="22" viewBox="0 0 30 22" fill="none" xmlns="http://www.w3.org/2000/svg">
<path fill-rule="evenodd" clip-rule="evenodd" d="M14.7155 0L15.8764 2.25825H15.8768L16.3103 3.10156H16.3099L19.0941 8.51792H25.8227H27.681C28.2961 8.51792 28.8859 8.7618 29.3208 9.19591C29.7557 9.63002 30 10.2188 30 10.8327C30 11.4468 29.7557 12.0357 29.3209 12.47C29.2665 12.5243 29.2097 12.5756 29.1508 12.6238C28.7382 12.9615 28.2193 13.1485 27.681 13.1488H25.8227H19.0941L16.3099 18.5651H16.3103L15.8768 19.4084H15.8764L14.7155 21.6667H10.8436V19.4084V18.5651V17.0358H9.73154C9.70137 17.0358 9.67291 16.9806 9.64806 16.8834H9.36453C9.34079 16.8834 9.31838 16.8427 9.2985 16.7703H9.23276H9.10961C9.08859 16.7703 9.06861 16.7335 9.05082 16.668L8.97784 16.6941L8.97686 16.6886L8.77213 16.762C8.77499 16.7658 8.77788 16.7694 8.78079 16.7728H8.76354L8.75837 16.7669L8.46552 16.8719L8.47045 16.8773L8.45198 16.8773L8.43104 16.8846L8.43073 16.8844L8.16983 16.9779L8.16995 16.9781L8.15024 16.9854L8.14988 16.9851L8.08375 17.0088C8.07683 17.0101 8.06973 17.0101 8.06281 17.0088C8.01823 17.0088 7.97613 16.9627 7.9388 16.8807C5.85547 16.8684 4.1798 16.3815 4.1798 15.7844C4.1798 15.1872 5.86078 14.7003 7.93993 14.6881C7.97697 14.6076 8.01868 14.5625 8.06281 14.5625C8.06973 14.5612 8.07683 14.5612 8.08375 14.5625L8.14989 14.5862L8.15024 14.5858L8.16995 14.5932L8.16984 14.5933L8.43072 14.6868L8.43104 14.6866L8.45198 14.694L8.45351 14.695L8.74215 14.7985H8.75986L8.75555 14.8033L8.76333 14.8061L8.76354 14.8059L8.76392 14.8063L9.04997 14.9088C9.06797 14.8414 9.08826 14.8034 9.10961 14.8034H9.23276H9.29756C9.31768 14.7287 9.34042 14.6866 9.36453 14.6866H9.64837C9.67315 14.5902 9.7015 14.5354 9.73154 14.5354H10.8436V13.1488H10.287C10.2306 13.1488 10.1776 13.0467 10.1314 12.8672H9.60222C9.55768 12.8672 9.51566 12.7897 9.47847 12.6521H9.36823H9.1367C9.09697 12.6521 9.05936 12.5821 9.02605 12.4578L7.38951 13.0441L7.39409 13.0492L7.36012 13.0546L7.22783 13.102C7.21528 13.1069 7.20191 13.1095 7.18843 13.1094C7.10505 13.1094 7.02622 13.022 6.95643 12.8667C3.10135 12.8421 0.00247192 11.9409 0.00247192 10.8352C0.00247192 9.72969 3.10016 8.82977 6.95422 8.80488C7.02455 8.64656 7.10416 8.55726 7.18843 8.55726C7.20191 8.55722 7.21528 8.55972 7.22783 8.56463L7.33456 8.60281L7.35592 8.61012L7.39409 8.62364L7.39377 8.62399L7.87786 8.79714L7.87808 8.79698L7.91627 8.8105L7.91596 8.81077L9.02599 9.20782C9.05932 9.0834 9.09695 9.01334 9.1367 9.01334H9.36823H9.47847C9.51566 8.87569 9.55768 8.79821 9.60222 8.79821H10.1316C10.1778 8.61947 10.2307 8.51792 10.287 8.51792H10.8436V7.13002H9.73154C9.70145 7.13002 9.67305 7.07527 9.64824 6.97882H9.36453C9.3405 6.97882 9.31783 6.93723 9.29776 6.86327H9.23276H9.10961C9.08821 6.86327 9.06788 6.82509 9.04984 6.75733L8.97785 6.78336L8.97775 6.7828L8.75125 6.86423C8.75409 6.86782 8.75697 6.87119 8.75986 6.87432L8.74188 6.8676L8.15192 7.0797L8.15024 7.08085L8.14984 7.08045L8.08375 7.10421C8.07683 7.10548 8.06973 7.10548 8.06281 7.10421C8.01868 7.10421 7.97697 7.05904 7.93993 6.97859C5.86078 6.96641 4.1798 6.47947 4.1798 5.88227C4.1798 5.28521 5.85516 4.79836 7.93824 4.78596C7.9757 4.7032 8.018 4.65664 8.06281 4.65664C8.06973 4.65537 8.07683 4.65537 8.08375 4.65664L8.15214 4.68123H8.16995L8.16558 4.68606L8.45305 4.78941H8.47045L8.46608 4.7941L8.75792 4.89902L8.76354 4.89267H8.78079C8.77773 4.89617 8.77471 4.89994 8.77171 4.90398L8.97775 4.97805L8.97785 4.97749L9.04954 5.00341C9.06765 4.93496 9.08809 4.89636 9.10961 4.89636H9.23276H9.29817C9.31813 4.82318 9.34066 4.78204 9.36453 4.78204H9.64831C9.6731 4.6856 9.70148 4.63083 9.73154 4.63083H10.8436V3.10156V2.25825V0H14.7155ZM7.48892 10.8303H7.48768V10.8352H7.48892L7.48892 10.8327L7.48892 10.8303ZM7.58868 10.8327L7.58868 10.8303H8.11822V10.8327V10.8352H7.58868L7.58868 10.8327ZM8.16749 10.8352H8.16872V10.8327V10.8303H8.16749V10.8327V10.8352ZM8.74015 10.8352H8.21059V10.8327V10.8303H8.74015V10.8327V10.8352Z" fill="#C3C3C3"/>
</svg>
